<?xml version="1.0" standalone="no"?>
<!DOCTYPE svg PUBLIC "-//W3C//DTD SVG 20010904//EN"
 "http://www.w3.org/TR/2001/REC-SVG-20010904/DTD/svg10.dtd">
<svg version="1.0" xmlns="http://www.w3.org/2000/svg"
 width="779.000000pt" height="1280.000000pt" viewBox="0 0 779.000000 1280.000000"
 preserveAspectRatio="xMidYMid meet">
<g transform="translate(0.000000,1280.000000) scale(0.100000,-0.100000)"
fill="#000000" stroke="none">
<path d="M6140 9423 c-49 -24 -239 -217 -275 -280 -30 -51 -47 -63 -95 -63
-14 0 -41 -10 -60 -22 -31 -19 -47 -21 -129 -19 -65 2 -115 -3 -162 -15 l-68
-18 -37 38 -37 38 -75 -4 c-67 -5 -77 -3 -102 18 -15 13 -46 32 -67 42 -22 9
-73 52 -114 94 -67 69 -88 83 -193 133 -65 30 -126 55 -135 55 -27 0 -51 -33
-51 -69 0 -18 7 -71 16 -119 8 -48 19 -112 25 -142 5 -30 23 -83 39 -118 26
-55 30 -76 30 -147 0 -68 4 -90 24 -128 l24 -45 -43 -86 c-56 -112 -72 -198
-55 -304 10 -67 9 -83 -6 -122 -12 -31 -17 -80 -19 -160 -1 -67 -9 -146 -19
-190 -20 -85 -17 -165 10 -261 16 -57 16 -62 -1 -97 -13 -26 -20 -67 -23 -137
l-4 -100 -81 -45 c-245 -136 -433 -331 -544 -565 -20 -44 -65 -116 -98 -160
-79 -104 -119 -176 -140 -250 -10 -33 -39 -92 -65 -131 -99 -150 -224 -424
-324 -713 -26 -75 -50 -121 -86 -170 -64 -84 -124 -204 -152 -307 -31 -116
-31 -341 1 -474 37 -152 38 -158 6 -170 -16 -6 -156 -10 -353 -10 -610 0
-1213 -43 -1812 -130 -219 -32 -278 -48 -436 -126 -140 -68 -220 -138 -266
-232 -30 -60 -33 -75 -33 -157 0 -104 16 -145 67 -171 51 -27 147 -15 249 31
169 75 204 87 313 110 233 49 405 60 1811 120 198 8 392 18 430 21 69 6 71 5
117 -30 131 -101 398 -240 523 -273 58 -15 106 -18 285 -17 118 0 237 6 265
12 55 11 63 9 131 -43 61 -47 128 -67 221 -65 43 1 108 -2 146 -5 63 -7 70 -5
108 20 37 24 44 25 71 14 25 -10 34 -10 59 5 l29 17 44 -44 c36 -37 54 -47
101 -57 32 -7 75 -9 97 -6 24 4 56 0 87 -9 45 -15 51 -15 111 5 34 12 69 19
77 16 26 -10 112 16 149 45 23 18 44 27 53 24 9 -4 53 -9 98 -11 90 -6 173 12
217 47 48 38 28 108 -56 196 -25 26 -31 41 -35 97 -6 72 -8 69 59 81 127 21
195 223 170 502 -7 79 -6 118 5 170 9 43 16 137 17 253 2 185 2 185 34 253
117 250 136 478 75 895 l-16 113 30 32 c43 45 77 103 98 166 15 45 17 74 12
164 -6 108 -5 110 24 161 51 91 70 162 76 281 5 96 9 114 29 138 84 101 -4
327 -182 467 -50 39 -64 57 -70 85 -10 57 1 120 30 167 15 24 43 68 62 98 42
66 62 130 74 232 5 42 16 100 24 130 60 207 33 368 -84 502 -27 31 -50 67 -50
79 0 12 -11 48 -24 80 -22 52 -23 65 -15 120 26 176 20 479 -12 599 -17 65
-77 86 -149 51z"/>
</g>
</svg>
